<svg width="23" height="15" viewBox="0 0 23 15" fill="none" xmlns="http://www.w3.org/2000/svg">
<path d="M5.48625 14.24C8.46625 14.24 10.5663 12.5 10.5663 9.72C10.5663 7 8.54625 5.42 6.30625 5.42C5.02625 5.42 3.92625 5.94 3.28625 6.58V2.72H9.68625V0.659999H0.94625V8.12L2.60625 8.6C3.44625 7.8 4.38625 7.44 5.52625 7.44C7.16625 7.44 8.20625 8.38 8.20625 9.82C8.20625 11.12 7.14625 12.16 5.46625 12.16C3.96625 12.16 2.76625 11.6 1.86625 10.58L0.52625 12.18C1.60625 13.46 3.18625 14.24 5.48625 14.24ZM20.6584 14V10.98H22.4384V8.92H20.6584V0.659999H17.4384L11.9584 9.1V10.98H18.3184V14H20.6584ZM18.3184 8.92H14.2584L18.3184 2.76V8.92Z" fill="#B1B1B1"/>
</svg>
