<svg width="24" height="25" viewBox="0 0 24 25" fill="none" xmlns="http://www.w3.org/2000/svg">
<path d="M22 10.5046C22.1 10.0046 21.7 9.40459 21.2 9.40459L15.5 8.60459L12.9 3.40459C12.8 3.20459 12.7 3.10459 12.5 3.00459C12 2.70459 11.4 2.90459 11.1 3.40459L8.6 8.60459L2.9 9.40459C2.6 9.40459 2.4 9.50459 2.3 9.70459C1.9 10.1046 1.9 10.7046 2.3 11.1046L6.4 15.1046L5.4 20.8046C5.4 21.0046 5.4 21.2046 5.5 21.4046C5.8 21.9046 6.4 22.1046 6.9 21.8046L12 19.1046L17.1 21.8046C17.2 21.9046 17.4 21.9046 17.6 21.9046C17.7 21.9046 17.7 21.9046 17.8 21.9046C18.3 21.8046 18.7 21.3046 18.6 20.7046L17.6 15.0046L21.7 11.0046C21.9 10.9046 22 10.7046 22 10.5046Z" fill="#FFBC57"/>
</svg>
