<svg width="24" height="23" viewBox="0 0 24 23" fill="none" xmlns="http://www.w3.org/2000/svg">
<g clip-path="url(#clip0_42_196)">
<path d="M22.6771 20.875L18.4131 16.9309C20.0682 15.0065 20.8698 12.5638 20.6529 10.1052C20.436 7.64652 19.2172 5.35881 17.2471 3.71243C15.277 2.06604 12.7054 1.18613 10.0609 1.25361C7.41647 1.32108 4.90025 2.33083 3.02965 4.07522C1.15904 5.81961 0.0762357 8.16604 0.0038743 10.6321C-0.0684871 13.0981 0.875097 15.4962 2.64061 17.3334C4.40612 19.1706 6.85935 20.3071 9.49588 20.5093C12.1324 20.7116 14.7518 19.9641 16.8155 18.4207L21.045 22.3648C21.1519 22.4652 21.279 22.545 21.419 22.5994C21.5591 22.6538 21.7093 22.6818 21.861 22.6818C22.0128 22.6818 22.163 22.6538 22.303 22.5994C22.4431 22.545 22.5702 22.4652 22.6771 22.3648C22.8842 22.1649 23 21.8979 23 21.6199C23 21.342 22.8842 21.0749 22.6771 20.875ZM10.3679 18.4207C8.77668 18.4207 7.22122 17.9807 5.89819 17.1563C4.57516 16.3319 3.54398 15.1602 2.93506 13.7893C2.32614 12.4185 2.16681 10.91 2.47724 9.45466C2.78767 7.99934 3.5539 6.66255 4.67904 5.61332C5.80419 4.5641 7.23771 3.84957 8.79833 3.56008C10.3589 3.2706 11.9766 3.41918 13.4466 3.98701C14.9167 4.55485 16.1732 5.51645 17.0572 6.75021C17.9412 7.98397 18.4131 9.43447 18.4131 10.9183C18.4131 12.9081 17.5655 14.8163 16.0567 16.2233C14.5479 17.6303 12.5016 18.4207 10.3679 18.4207Z" fill="#535353"/>
</g>
<defs>
<clipPath id="clip0_42_196">
<rect width="24" height="22.3636" fill="white" transform="translate(0 0.318176)"/>
</clipPath>
</defs>
</svg>
