<svg width="24" height="25" viewBox="0 0 24 25" fill="none" xmlns="http://www.w3.org/2000/svg">
<g clip-path="url(#clip0_44_206)">
<path d="M20.4893 4.37446C15.808 -0.30636 8.19196 -0.30636 3.51062 4.37446C-1.17021 9.05529 -1.17021 16.6716 3.51062 21.3527C5.85127 23.6931 8.92565 24.8634 12 24.8634C15.0743 24.8634 18.1487 23.6931 20.4893 21.3527C25.1702 16.6718 25.1702 9.05557 20.4893 4.37446ZM7.72837 6.51097C8.17143 6.0674 8.76186 5.8229 9.38947 5.8229C10.0171 5.8229 10.6075 6.0674 11.0511 6.51144C11.4947 6.95502 11.7389 7.54494 11.7389 8.17231C11.7389 8.79992 11.4947 9.38984 11.0506 9.83365C10.607 10.2775 10.0171 10.5217 9.38947 10.5217C8.76186 10.5217 8.17194 10.2775 7.72837 9.83365C7.28428 9.38979 7.04006 8.79992 7.04006 8.17231C7.04006 7.5447 7.28428 6.95483 7.72837 6.51097ZM8.12352 17.8474C7.97057 18.0004 7.77018 18.0769 7.56984 18.0769C7.3695 18.0769 7.16906 18.0004 7.01615 17.8474C6.71015 17.5418 6.71015 17.0457 7.01611 16.74L15.8764 7.87972C16.1823 7.57381 16.6779 7.57381 16.9838 7.87972C17.2898 8.18534 17.2898 8.68146 16.9838 8.98713L8.12352 17.8474ZM16.7936 18.7017C16.3506 19.1453 15.7601 19.3898 15.1325 19.3898C14.5049 19.3898 13.9145 19.1453 13.4709 18.7012C13.0273 18.2579 12.7831 17.668 12.7831 17.0404C12.7831 16.4127 13.0273 15.8228 13.4714 15.379C13.9145 14.9355 14.5049 14.691 15.1325 14.691C15.7601 14.691 16.3506 14.9355 16.7941 15.3795C17.2377 15.8231 17.4819 16.413 17.4819 17.0404C17.4819 17.6679 17.2377 18.2578 16.7936 18.7017Z" fill="#FFBC57"/>
</g>
<defs>
<clipPath id="clip0_44_206">
<rect width="24" height="24" fill="white" transform="translate(0 0.863632)"/>
</clipPath>
</defs>
</svg>
